<svg width="1200" height="2000" viewBox="0 0 1200 2000" fill="none" xmlns="http://www.w3.org/2000/svg">
<rect width="1200" height="2000" fill="url(#paint0_linear_880_544)"/>
<mask id="mask0_880_544" style="mask-type:alpha" maskUnits="userSpaceOnUse" x="0" y="0" width="1200" height="2000">
<rect width="1200" height="2000" fill="url(#paint1_linear_880_544)"/>
</mask>
<g mask="url(#mask0_880_544)">
<path d="M164.062 214.483V151.188H202.106V161.784H174.64V177.561H196.84V188.11H174.64V214.483H164.062Z" fill="#B9FA00"/>
<path d="M206.62 214.483V151.188H217.198V214.483H206.62Z" fill="#B9FA00"/>
<path d="M262.214 179.644C262.04 177.901 261.527 176.191 260.681 174.527C259.131 171.391 256.751 169.134 253.549 167.756C250.348 166.378 246.64 165.689 242.426 165.689C236.836 165.689 232.401 166.909 229.104 169.34C225.815 171.771 223.586 174.995 222.416 179.01L232.069 182.043C232.86 179.612 234.251 177.893 236.235 176.903C238.228 175.905 240.283 175.407 242.426 175.407C245.968 175.407 248.482 176.183 249.976 177.735C251.217 179.026 251.929 180.919 252.119 183.406C250.205 183.691 248.339 183.96 246.529 184.213C243.533 184.641 240.75 185.1 238.196 185.599C235.635 186.098 233.405 186.653 231.508 187.27C228.994 188.118 226.946 189.211 225.365 190.541C223.784 191.88 222.613 193.456 221.855 195.293C221.096 197.123 220.716 199.182 220.716 201.471C220.716 204.076 221.325 206.468 222.534 208.638C223.744 210.808 225.539 212.543 227.91 213.849C230.282 215.156 233.176 215.806 236.599 215.806C240.868 215.806 244.434 215.006 247.28 213.414C249.478 212.186 251.454 210.412 253.225 208.1V214.491H262.483V185.354C262.483 183.303 262.396 181.402 262.222 179.659V179.644H262.214ZM251.881 194.85C251.81 196.592 251.494 198.136 250.941 199.483C250.593 200.568 249.913 201.724 248.901 202.96C247.889 204.187 246.537 205.233 244.845 206.08C243.153 206.927 241.098 207.355 238.702 207.355C237.034 207.355 235.635 207.094 234.512 206.563C233.381 206.032 232.528 205.328 231.943 204.433C231.357 203.538 231.065 202.508 231.065 201.336C231.065 200.314 231.294 199.419 231.745 198.651C232.196 197.891 232.852 197.218 233.698 196.632C234.544 196.046 235.587 195.531 236.813 195.095C238.07 194.683 239.516 194.311 241.161 193.971C242.797 193.63 244.758 193.274 247.043 192.893C248.505 192.648 250.15 192.379 251.984 192.094C251.968 192.893 251.937 193.82 251.889 194.85H251.881Z" fill="#B9FA00"/>
<path d="M334.348 182.962V214.475H323.77V185.639C323.77 182.384 322.964 179.842 321.359 178.012C319.746 176.183 317.572 175.264 314.82 175.264C313.129 175.264 311.603 175.652 310.259 176.428C308.915 177.204 307.847 178.345 307.057 179.857C306.266 181.37 305.871 183.16 305.871 185.243V214.475H295.34V185.773C295.34 182.463 294.534 179.881 292.929 178.036C291.316 176.19 289.126 175.264 286.351 175.264C283.576 175.264 281.505 176.19 279.876 178.036C278.255 179.881 277.441 182.281 277.441 185.243V214.475H266.776V167.003H276.121V172.151C277.481 170.441 279.157 169.047 281.141 167.954C283.734 166.536 286.636 165.823 289.853 165.823C293.395 165.823 296.352 166.576 298.74 168.088C300.851 169.427 302.487 171.185 303.657 173.371C305.136 171.074 307.088 169.261 309.508 167.938C312.085 166.528 314.947 165.831 318.109 165.831C323.343 165.831 327.359 167.407 330.158 170.559C332.949 173.712 334.348 177.854 334.348 182.978V182.962Z" fill="#B9FA00"/>
<path d="M174.877 113.402C173.335 118.653 170.418 123.627 166.22 128.181C162.488 132.228 157.856 135.839 152.44 138.904C148.06 141.391 142.716 143.418 137.885 144.931C137.885 141.027 139.545 133.099 141.64 130.842C141.688 130.786 141.751 130.747 141.822 130.707C143.672 129.741 144.574 129.083 146.329 128.086C155.065 123.136 160.97 116.665 162.971 109.878C163.738 107.288 163.445 104.888 162.148 103.13C160.963 101.522 159.065 100.588 156.938 100.564H156.788C153.942 100.564 151.396 101.586 148.993 103.677C146.526 105.831 144.242 109.086 142.186 113.355C139.743 118.447 137.64 125.028 136.019 132.655L133.592 146.277C133.545 146.523 133.505 146.768 133.458 147.03L133.323 147.774C133.047 149.342 132.746 151.021 132.438 152.74C139.49 152.019 144.415 152.075 144.755 152.083C148.179 152.138 150.914 154.957 150.859 158.395C150.803 161.792 148.036 164.517 144.661 164.517H144.566C144.344 164.517 138.233 164.461 130.082 165.546V165.562H130.019C126.817 165.95 116.847 168.152 116.847 168.152C109.827 170.053 103.969 172.611 99.4226 175.747C93.8173 179.62 90.3624 184.213 88.8603 189.797C87.9116 193.337 88.4097 196.845 90.2043 199.182C90.8684 200.045 91.6669 200.702 92.5998 201.138C93.5327 201.574 94.5921 201.795 95.778 201.795C95.778 201.795 96.6398 201.795 97.5173 201.637C101.589 200.885 105.89 195.158 105.89 195.158C108.016 192.331 109.353 189.71 110.586 186.969C112.104 183.58 113.985 178.82 115.59 172.825C115.725 172.753 115.867 172.69 116.009 172.627C118.176 171.605 120.792 170.678 123.061 170.251C125.441 169.799 128.05 169.799 129.117 170.266C125.093 186.399 120.128 197.756 113.946 204.987C108.712 211.117 102.601 214.221 95.778 214.221C89.5244 214.221 84.0456 211.56 80.3535 206.737C78.3058 204.06 76.9065 200.782 76.3135 197.265C75.7364 193.812 75.9262 190.106 76.8828 186.565C79.1597 178.091 84.4171 170.979 92.5049 165.427C98.5767 161.262 106.269 157.983 115.353 155.694C116.737 155.346 118.112 155.029 119.472 154.744C119.875 152.518 120.294 150.213 120.69 148.028C120.168 148.043 119.646 148.051 119.132 148.051C104.103 148.051 96.2365 144.163 94.9004 143.442L94.5447 143.252C91.5088 141.668 90.3229 137.922 91.9041 134.873C93.4853 131.824 97.2327 130.644 100.269 132.228L100.688 132.441C100.79 132.497 100.775 132.481 100.838 132.521C101.36 132.782 107.337 135.617 119.132 135.617C120.342 135.617 121.583 135.562 122.848 135.459C124.777 124.49 127.52 115.247 131.015 107.977C133.798 102.172 137.11 97.5784 140.85 94.3154C145.538 90.2209 150.898 88.1459 156.78 88.1459H157.097C163.137 88.2251 168.616 90.997 172.126 95.7647C175.731 100.651 176.727 107.082 174.869 113.402H174.877Z" fill="#B9FA00"/>
<path d="M196.48 863.49C274.609 809.391 349.223 765.546 369.729 762.825C390.235 760.105 685.075 621.871 707.393 619.517C729.711 617.163 945.361 613.687 956.917 613.203C968.473 612.72 977.234 668.811 957.681 671.036C938.128 673.26 727.085 725.489 727.085 725.489L415.413 897.087L196.478 863.49L196.48 863.49Z" fill="#D1F9FF"/>
<path d="M308.519 947.101C453.945 861.189 677.173 763.89 684.868 759.432C692.564 754.973 1013.61 786.643 1025.41 793.743C1045.08 805.577 1036.32 867.075 1011.6 868.34C986.878 869.606 701.354 879.551 701.354 879.551L388.965 1077.95L308.519 947.101Z" fill="#D1F9FF"/>
<path d="M378.892 1023.75L731.605 915.606C731.605 915.606 958.98 906.898 988.649 909.462C1005.84 910.949 1010.39 972.568 993.71 978.696C981.885 983.042 703.314 1053.1 703.314 1053.1L432.54 1202.62L378.892 1023.75Z" fill="#D1F9FF"/>
<path d="M496.725 1140.63L689.753 1064.66C689.753 1064.66 903.036 1032.34 925.026 1035.85C943.791 1038.84 948.507 1105.06 928.208 1108.76C899.454 1114 709.154 1164.79 709.154 1164.79L561.163 1265.38L496.725 1140.63Z" fill="#D1F9FF"/>
<path opacity="0.6" d="M387.44 1084.56L301.931 945.467L306.099 943.005C425.502 872.467 595.431 795.097 659.403 765.972C671.605 760.416 681.242 756.028 682.483 755.315C684.379 754.226 686.506 752.985 740.037 757.172C770.734 759.572 811.232 763.249 854.072 767.52C892.592 771.362 1018.96 784.312 1027.86 789.666C1041.44 797.838 1043.5 822.279 1038.52 842.202C1033.83 860.929 1023.87 872.463 1011.85 873.092C988.221 874.301 723.755 883.531 702.815 884.26L387.44 1084.56ZM315.112 948.74L390.49 1071.35L699.896 874.844L701.191 874.799C704.044 874.7 986.959 864.842 1011.36 863.592C1020.32 863.155 1026.49 851.051 1029.29 839.894C1033.88 821.555 1031.04 802.68 1022.96 797.818C1008.69 791.377 706.699 760.871 686.664 763.868C684.374 765.052 677.68 768.106 663.349 774.632C600.248 803.362 433.84 879.128 315.114 948.741L315.112 948.74Z" fill="url(#paint2_linear_880_544)"/>
<path opacity="0.6" d="M429.678 1209.63L372.976 1020.59L377.497 1019.2L730.803 910.876L731.422 910.852C740.718 910.497 959.435 902.162 989.059 904.722C1002.53 905.888 1006.81 927.12 1008.02 936.195C1010.62 955.616 1007.76 978.597 995.346 983.16C983.585 987.483 723.028 1053.05 705.07 1057.56L429.674 1209.63L429.678 1209.63ZM384.808 1026.91L435.401 1195.6L701.553 1048.64L702.152 1048.48C798.419 1024.27 982.899 977.597 992.066 974.227C997.217 972.335 1001.1 956.207 998.593 937.454C996.629 922.761 991.791 914.505 988.238 914.197C959.954 911.753 745.605 919.83 732.404 920.333L384.806 1026.91L384.808 1026.91Z" fill="url(#paint3_linear_880_544)"/>
<path opacity="0.6" d="M559.399 1272.33L490.079 1138.14L688.509 1060.04L689.038 1059.96C697.778 1058.64 903.311 1027.57 925.773 1031.15C939.466 1033.33 945.941 1056.03 946.163 1076.19C946.397 1097.49 940.024 1111.4 929.107 1113.43C929.001 1113.45 928.892 1113.47 928.78 1113.49C900.581 1118.73 724.444 1165.64 711.156 1169.18L559.396 1272.33L559.399 1272.33ZM503.369 1143.13L562.928 1258.43L707.146 1160.4L707.926 1160.2C715.678 1158.13 897.514 1109.63 927.062 1104.14L927.371 1104.08C932.916 1103.05 936.819 1091.37 936.654 1076.29C936.434 1056.35 929.956 1041.45 924.279 1040.54C906.888 1037.77 750.523 1060.27 690.997 1069.29L503.369 1143.13Z" fill="url(#paint4_linear_880_544)"/>
<path d="M-22.3562 1463.35C0.68471 1465.79 48.6518 1464.67 78.5172 1460.77C118.641 1455.53 302.676 1387.3 394.852 1353.52C487.03 1319.73 611.929 1231.64 611.929 1231.64C611.929 1231.64 461.654 865.309 429.471 838.842C397.287 812.374 248.697 830.263 245.566 835.49C242.438 840.716 -205.636 1072.84 -236.046 1096.67C-251.575 1108.84 -299.472 1168.22 -342.634 1223.42C-405.153 1303.39 -399.959 1417 -330.397 1490.92C-302.819 1520.22 -272.085 1544.99 -242.045 1565C-173.013 1610.97 -79.2282 1584.65 -44.0373 1509.55C-31.7933 1483.42 -22.3544 1463.35 -22.3544 1463.35L-22.3562 1463.35Z" fill="#D1F9FF"/>
<path opacity="0.6" d="M400.763 543.685L396.576 540.176C418.574 513.922 434.128 495.834 440.37 489.245L444.336 493.003C438.168 499.514 422.694 517.512 400.763 543.685Z" fill="url(#paint5_linear_880_544)"/>
<path opacity="0.6" d="M525.613 856.428L521.235 853.158L521.698 852.538L578.559 776.038L582.943 779.296L525.613 856.428Z" fill="url(#paint6_linear_880_544)"/>
<path d="M531.248 802.036L521.49 827.523L523.887 854.173L523.952 854.883L523.424 854.793L496.858 850.305L470.684 858.036L453.291 835.918L425.526 834.609L412.999 809.486L385.648 803.943L376.364 777.495L349.73 768.93L343.26 741.713L317.615 730.397L314.222 702.687L290.152 688.244L291.003 660.468L270.308 641.396L280.066 615.91L277.652 589.041L277.605 588.549L278.133 588.64L304.701 593.138L330.872 585.396L348.266 607.515L376.032 608.834L388.558 633.947L415.909 639.489L425.192 665.938L451.829 674.514L458.298 701.73L483.931 713.037L487.335 740.746L511.405 755.188L510.545 782.979L531.248 802.036Z" fill="url(#paint7_linear_880_544)"/>
<path d="M330.872 585.396L387.682 508.177L405.075 530.296L348.266 607.515L330.872 585.396Z" fill="url(#paint8_linear_880_544)"/>
<path d="M376.032 608.835L432.84 531.604L445.357 556.73L388.558 633.947L376.032 608.835Z" fill="url(#paint9_linear_880_544)"/>
<path d="M415.909 639.49L472.718 562.27L482.002 588.719L425.192 665.938L415.909 639.49Z" fill="url(#paint10_linear_880_544)"/>
<path d="M451.829 674.514L508.628 597.297L515.108 624.511L458.298 701.73L451.829 674.514Z" fill="url(#paint11_linear_880_544)"/>
<path d="M540.74 635.818L483.931 713.037L487.335 740.746L544.145 663.526L540.74 635.818Z" fill="url(#paint12_linear_880_544)"/>
<path d="M588.058 724.817L531.248 802.037L521.49 827.523L578.3 750.303L588.058 724.817Z" fill="url(#paint13_linear_880_544)"/>
<path d="M278.133 588.64L304.701 593.139L361.511 515.919L278.133 588.64Z" fill="url(#paint14_linear_880_544)"/>
<path opacity="0.6" d="M523.488 857.576L522.96 857.485L497.026 853.105L469.681 861.181L451.915 838.587L423.796 837.262L411.15 811.899L383.584 806.313L374.235 779.681L347.428 771.059L340.915 743.665L315.092 732.27L311.672 704.344L287.372 689.762L288.234 661.631L267.095 642.15L277.289 615.525L274.885 588.809L280.324 588.291L280.371 588.782L282.844 616.296L273.522 640.644L293.772 659.305L292.932 686.727L316.772 701.032L320.138 728.526L345.605 739.762L352.032 766.8L378.492 775.31L387.712 801.575L414.849 807.074L427.256 831.956L454.666 833.248L471.687 854.893L496.69 847.507L524.415 852.192L523.488 857.576Z" fill="url(#paint15_linear_880_544)"/>
<path opacity="0.6" d="M83.4413 1464.79C81.8642 1465.08 80.4286 1465.31 79.1342 1465.48C49.4823 1469.35 0.868329 1470.59 -22.8557 1468.07L-21.8519 1458.61C1.2878 1461.07 48.8338 1459.85 77.9036 1456.05C114.865 1451.22 277.019 1391.7 373.903 1356.13L393.217 1349.05C483.756 1315.86 607.945 1228.63 609.189 1227.75L614.673 1235.53C613.419 1236.41 488.2 1324.36 396.491 1357.98L377.181 1365.07C283.236 1399.55 128.155 1456.48 83.4432 1464.79L83.4413 1464.79Z" fill="url(#paint16_linear_880_544)"/>
<path d="M170.237 1131.87L592.255 405.513C597.085 397.199 605.815 391.913 615.423 391.488L1020.2 373.546C1028.33 373.185 1035.92 377.598 1039.62 384.836L1044.1 393.571C1055.77 416.377 1057.34 443.039 1048.4 467.051L749.44 1270.54C736.876 1304.31 701.6 1323.92 666.287 1316.76L235.335 1229.37C211.893 1224.62 191.618 1210.04 179.649 1189.34L170.194 1172.98C162.84 1160.26 162.857 1144.58 170.239 1131.87L170.237 1131.87Z" fill="#321450"/>
<path opacity="0.71" d="M620.295 401.737L990.044 392.084C1001.43 391.786 1009.39 403.245 1005.14 413.808L684.366 1211.16C676.262 1231.3 655.115 1242.97 633.751 1239.09L197.769 1159.86C183.557 1157.28 176.2 1141.4 183.423 1128.89L594.433 417.12C599.791 407.841 609.586 402.015 620.297 401.735L620.295 401.737Z" fill="url(#paint17_linear_880_544)"/>
<path opacity="0.6" d="M704.689 690.24C689.421 693.078 674.285 694.23 659.683 693.594C619.582 691.844 589.434 676.734 574.792 651.049C561.358 627.482 562.862 597.852 579.027 567.621C611.623 506.664 696.494 458.366 772.249 457.663C814.265 457.272 847.879 471.69 864.47 497.217C878.646 519.027 879.132 547.108 865.837 576.287C850.931 609.004 821.049 639.332 781.696 661.686C756.98 675.725 730.647 685.416 704.689 690.24ZM738.8 470.522C676.18 482.16 613.787 522.791 587.417 572.108C572.849 599.352 571.299 625.714 583.057 646.339C596.022 669.08 623.383 682.487 660.098 684.09C737.783 687.477 828.035 636.307 857.178 572.344C869.077 546.229 868.833 521.391 856.492 502.402C841.709 479.656 811.036 466.817 772.337 467.177C761.293 467.279 750.036 468.434 738.8 470.522Z" fill="url(#paint18_linear_880_544)"/>
<path d="M152.247 1163.34L144.572 1160.19C151.769 1198.92 181.555 1229.52 220.078 1237.77L672.376 1334.58C712.354 1343.14 752.483 1320.74 766.177 1282.22L1053.33 474.502C1065.72 439.674 1057.84 400.853 1032.86 373.607L1028.67 385.123L714.012 1210.52C700.905 1245.26 667.646 1265.79 631.23 1258.56L152.245 1163.34L152.247 1163.34Z" fill="url(#paint19_linear_880_544)"/>
<path opacity="0.6" d="M704.982 1339.69C694.118 1341.71 682.73 1341.66 671.382 1339.23L219.085 1242.42C178.554 1233.74 147.469 1201.81 139.897 1161.06L149.251 1159.32C156.12 1196.28 184.314 1225.25 221.078 1233.12L673.375 1329.93C710.877 1337.96 748.852 1316.76 761.696 1280.63L1048.85 472.908C1060.68 439.654 1053.2 402.835 1029.35 376.821L1036.37 370.393C1062.6 399.01 1070.82 439.514 1057.82 476.096L770.662 1283.81C760.108 1313.5 734.473 1334.21 704.982 1339.69Z" fill="url(#paint20_linear_880_544)"/>
<path d="M1016.56 364.598L616.631 376.761C600.061 377.266 584.934 386.27 576.602 400.591L146.543 1139.12C138.299 1153.29 146.457 1171.35 162.548 1174.52L648.336 1270.04C672.884 1274.87 697.316 1261.37 706.294 1238.02L1033.14 387.991C1037.57 376.505 1028.84 364.232 1016.56 364.598ZM1005.13 413.807L684.366 1211.15C676.264 1231.3 655.11 1242.97 633.756 1239.08L197.779 1159.86C183.557 1157.28 176.213 1141.4 183.43 1128.89L594.44 417.112C599.781 407.837 609.576 402.011 620.306 401.739L725.703 398.989L731.542 388.537L850.355 385.384L845.95 395.84L990.042 392.072C1001.43 391.776 1009.38 403.244 1005.13 413.807Z" fill="url(#paint21_linear_880_544)"/>
<path opacity="0.6" d="M161.629 1179.19C152.436 1177.38 144.949 1171.45 141.089 1162.92C137.226 1154.38 137.715 1144.83 142.431 1136.72L572.491 398.199C581.708 382.359 598.15 372.568 616.487 372.007L1016.42 359.845C1023.79 359.624 1030.74 363.09 1035 369.111C1039.27 375.127 1040.23 382.826 1037.58 389.703L1028.7 386.283C1030.23 382.329 1029.69 378.073 1027.24 374.612C1024.78 371.146 1020.94 369.229 1016.7 369.356L616.775 381.516C601.75 381.972 588.269 389.999 580.714 402.983L150.656 1141.51C147.507 1146.92 147.18 1153.29 149.759 1158.99C152.334 1164.69 157.33 1168.65 163.465 1169.85L161.629 1179.19Z" fill="url(#paint22_linear_880_544)"/>
<path opacity="0.6" d="M651.027 1243.73C645.156 1244.82 639.028 1244.88 632.902 1243.77L196.92 1164.54C188.603 1163.03 181.795 1157.77 178.244 1150.09C174.692 1142.43 175.078 1133.83 179.306 1126.51L590.314 414.742C596.455 404.107 607.898 397.307 620.172 396.982L989.921 387.328C996.872 387.147 1003.39 390.449 1007.36 396.159C1011.33 401.87 1012.15 409.132 1009.55 415.582L688.782 1212.93C682.202 1229.29 667.647 1240.64 651.027 1243.73L651.027 1243.73ZM616.405 406.915C608.991 408.293 602.372 412.885 598.553 419.499L187.545 1131.27C184.887 1135.87 184.643 1141.28 186.877 1146.1C189.111 1150.92 193.39 1154.23 198.622 1155.18L634.604 1234.41C653.656 1237.87 672.727 1227.34 679.954 1209.38L1000.73 412.031C1002.14 408.508 1001.71 404.702 999.547 401.585C997.381 398.467 993.963 396.737 990.168 396.837L620.42 406.49C619.064 406.526 617.722 406.67 616.405 406.915Z" fill="url(#paint23_linear_880_544)"/>
<path d="M370.176 1235.68L379.82 1249.53L445.361 1262.6L437.92 1248.69L370.176 1235.68Z" fill="#321450"/>
<path d="M253.346 1216.46C254.12 1212.77 250.07 1208.8 244.301 1207.59C238.531 1206.39 233.227 1208.4 232.454 1212.08C231.68 1215.77 235.73 1219.74 241.499 1220.95C247.268 1222.16 252.572 1220.15 253.346 1216.46Z" fill="#321450"/>
<path d="M537.703 1273.29C538.367 1270.12 534.891 1266.71 529.938 1265.68C524.986 1264.64 520.432 1266.36 519.768 1269.53C519.104 1272.7 522.581 1276.11 527.534 1277.14C532.486 1278.18 537.039 1276.46 537.703 1273.29Z" fill="#321450"/>
<path d="M584.084 1293.82C582.823 1294.06 581.473 1293.65 580.554 1292.62L561.457 1271.37C560.052 1269.81 560.181 1267.4 561.744 1266C563.31 1264.59 565.715 1264.72 567.118 1266.29L586.214 1287.54C587.62 1289.1 587.49 1291.51 585.927 1292.91C585.389 1293.4 584.748 1293.7 584.082 1293.82L584.084 1293.82Z" fill="#321450"/>
<path d="M616.346 1298.69C615.085 1298.93 613.736 1298.52 612.816 1297.5L593.72 1276.25C592.314 1274.68 592.444 1272.28 594.008 1270.87C595.572 1269.47 597.977 1269.6 599.382 1271.16L618.478 1292.41C619.884 1293.97 619.754 1296.38 618.192 1297.78C617.653 1298.27 617.012 1298.57 616.346 1298.69L616.346 1298.69Z" fill="#321450"/>
<path d="M1023.59 466.835L1006.74 511.119C1006.44 511.918 1006.58 512.819 1007.11 513.488L1015.31 523.791C1016.49 525.273 1018.83 524.891 1019.48 523.11L1035.03 480.292C1035.28 479.613 1035.21 478.861 1034.85 478.239L1027.95 466.471C1026.92 464.716 1024.32 464.934 1023.59 466.835Z" fill="#870129"/>
<path d="M996.77 535.257L978.818 581.047C978.609 581.579 978.711 582.182 979.08 582.616L989.91 595.315C990.679 596.217 992.138 595.954 992.543 594.84L1008.79 550.112C1008.96 549.651 1008.9 549.137 1008.63 548.727L999.501 534.965C998.809 533.92 997.227 534.091 996.77 535.257Z" fill="#870129"/>
<path opacity="0.6" d="M756.333 740.522L750.945 748.363L710.61 720.645L688.3 681.113L640.788 687.578L604.926 655.978L559.268 672.07L518.639 646.074L475.312 667.747L431.893 646.363L391.088 672.378L345.619 655.582L308.1 685.891L260.952 674.886L228.783 710.213L180.851 709.011L163.879 748.72L167.02 806.131L168.801 941.512L159.286 941.541L159.283 940.451L157.509 806.353L154.259 747.022L174.639 699.337L224.675 700.595L257.677 664.352L305.736 675.569L343.845 644.784L389.954 661.818L431.293 635.462L475.28 657.125L519.215 635.149L560.484 661.553L607.029 645.151L643.815 677.565L693.414 670.815L717.812 714.052L756.333 740.522Z" fill="url(#paint24_linear_880_544)"/>
<path d="M943.515 668.124L924.019 717.854C923.794 718.432 923.904 719.087 924.305 719.558L936.067 733.35C936.904 734.33 938.486 734.044 938.926 732.832L956.572 684.256C956.754 683.756 956.687 683.198 956.393 682.753L946.481 667.807C945.729 666.673 944.011 666.855 943.515 668.122L943.515 668.124Z" fill="#870129"/>
<path d="M632.785 1011.76L394.638 970.618L442.093 886.429L676.635 921.226L632.785 1011.76ZM587.233 1032.74L416.481 1002.73L381.505 1064.78L557.03 1095.11L587.235 1032.74L587.233 1032.74ZM515.395 1122.7L395.441 1101.28L368.904 1148.35L492.616 1169.73L515.395 1122.7Z" fill="url(#paint25_linear_880_544)"/>
<path d="M830.736 572.222C807.516 622.967 736.343 663.29 674.682 660.646C615.244 658.098 589.931 616.391 615.418 568.923C640.05 523.049 704.462 486.532 761.762 485.966C821.071 485.38 853.125 523.291 830.736 572.222Z" fill="white"/>
<mask id="mask1_880_544" style="mask-type:alpha" maskUnits="userSpaceOnUse" x="446" y="543" width="444" height="347">
<path d="M446.124 845.23L734.955 889.284L889.671 560.568L590.394 543.613L446.124 845.23Z" fill="url(#paint26_linear_880_544)"/>
</mask>
<g mask="url(#mask1_880_544)">
<path d="M632.651 1011.01L394.504 969.865L441.958 885.676L676.501 920.473L632.651 1011.01ZM587.099 1031.99L416.346 1001.98L381.37 1064.03L556.896 1094.36L587.101 1031.99L587.099 1031.99ZM515.26 1121.94L395.306 1100.53L368.769 1147.6L492.481 1168.98L515.26 1121.94Z" fill="url(#paint27_linear_880_544)"/>
<path d="M477.04 819.88L715.187 861.026L838.57 572L610.796 566.915L477.04 819.88Z" fill="url(#paint28_linear_880_544)"/>
<path d="M477.04 819.88L715.187 861.026L838.57 572L610.796 566.915L477.04 819.88Z" fill="url(#paint29_linear_880_544)"/>
</g>
<path d="M-255.395 1116.17C-241.816 1104.76 -225.039 1070.32 -215.46 1044.42C-204.102 1013.72 -193.505 983.251 -137.158 949.556C-80.8113 915.862 112.305 799.906 133.949 789.116C141.112 785.546 242.207 757.63 283.75 742.093C325.294 726.556 369.424 707.65 395.646 713.883C412.844 717.971 586.707 894.698 606.202 907.231C625.698 919.763 579.535 949.955 530.533 950.676C483.705 951.365 422.753 922.241 392.622 886.442C371.017 896.514 238.728 961.702 238.728 961.702C238.728 961.702 198.812 1143.58 45.6992 1183.65C-107.414 1223.71 -255.395 1116.17 -255.395 1116.17Z" fill="#D1F9FF"/>
<path opacity="0.6" d="M-255.493 1118.93L-261.614 1111.65C-249.08 1101.12 -229.598 1068.93 -219.922 1042.77L-219.415 1041.41C-208.174 1010.99 -196.548 979.529 -139.6 945.475C-132.417 941.18 -123.012 935.548 -112.022 928.967C-33.4592 881.925 112.775 794.357 131.827 784.862C134.932 783.313 149.392 778.985 176.826 770.829C210.83 760.719 257.4 746.872 282.083 737.64C286.862 735.852 291.678 734.021 296.493 732.187C335.384 717.385 372.118 703.404 396.743 709.257C407.285 711.762 455.458 757.697 527.748 827.49C565.458 863.898 601.079 898.286 608.772 903.231L603.626 911.233C595.554 906.043 567.022 878.63 521.139 834.333C474.572 789.375 404.197 721.432 394.505 718.501C372.764 713.334 335.711 727.438 299.877 741.076C295.044 742.917 290.212 744.755 285.414 746.548C260.424 755.893 213.672 769.795 179.536 779.944C158.474 786.205 138.58 792.122 136.069 793.372C117.348 802.704 -34.2724 893.494 -107.134 937.126C-118.128 943.709 -127.534 949.341 -134.718 953.637C-188.788 985.969 -199.33 1014.5 -210.492 1044.7L-211 1046.07C-220.194 1070.93 -240.266 1106.14 -255.493 1118.93Z" fill="url(#paint30_linear_880_544)"/>
<path d="M-19.6289 1422.64L-118.55 1557.1L-120.047 1605.49L-21.1266 1471.03L-19.6289 1422.64Z" fill="url(#paint31_linear_880_544)"/>
<path d="M317.451 922.981C295.976 934.527 261.71 952.489 239.79 963.858L241.098 962.113C239.141 974.123 236.002 985.62 232.132 996.987C205.15 1076.31 143.667 1143.46 66.868 1176.95C142.138 1131.38 203.094 1061.85 231.44 978.028C233.46 972.081 235.299 966.03 236.656 960.011L237.665 959.543C260.129 949.216 295.056 932.886 317.449 922.981L317.451 922.981Z" fill="#0EA8CC"/>
<path d="M652.478 817.722C651.773 817.845 651.04 817.882 650.291 817.822L554.511 809.983C549.797 809.598 546.29 805.463 546.676 800.752C547.061 796.038 551.192 792.53 555.908 792.917L651.688 800.756C656.402 801.141 659.909 805.275 659.523 809.987C659.198 813.952 656.221 817.066 652.476 817.724L652.478 817.722Z" fill="#0EA8CC"/>
</g>
<defs>
<linearGradient id="paint0_linear_880_544" x1="600" y1="0" x2="600" y2="2000" gradientUnits="userSpaceOnUse">
<stop stop-color="#414740"/>
<stop offset="0.49554" stop-color="#212620"/>
<stop offset="1" stop-color="#181E16"/>
</linearGradient>
<linearGradient id="paint1_linear_880_544" x1="600" y1="0" x2="600" y2="2000" gradientUnits="userSpaceOnUse">
<stop stop-color="#414740"/>
<stop offset="0.49554" stop-color="#212620"/>
<stop offset="1" stop-color="#181E16"/>
</linearGradient>
<linearGradient id="paint2_linear_880_544" x1="305.093" y1="962.484" x2="1107.88" y2="813.294" gradientUnits="userSpaceOnUse">
<stop stop-color="#FA87FF" stop-opacity="0"/>
<stop offset="0.143" stop-color="#FA87FF"/>
<stop offset="0.742" stop-color="#FA87FF" stop-opacity="0.4"/>
<stop offset="0.815" stop-color="#FA87FF"/>
<stop offset="0.924" stop-color="#FA87FF" stop-opacity="0"/>
</linearGradient>
<linearGradient id="paint3_linear_880_544" x1="1042.8" y1="887.533" x2="549.707" y2="1062.49" gradientUnits="userSpaceOnUse">
<stop offset="0.095" stop-color="#FA87FF" stop-opacity="0"/>
<stop offset="0.251" stop-color="#FA87FF"/>
<stop offset="0.564" stop-color="#FA87FF" stop-opacity="0.4"/>
<stop offset="0.859" stop-color="#FA87FF"/>
<stop offset="1" stop-color="#FA87FF" stop-opacity="0"/>
</linearGradient>
<linearGradient id="paint4_linear_880_544" x1="987.979" y1="1144.92" x2="483.071" y2="1158.46" gradientUnits="userSpaceOnUse">
<stop offset="0.069" stop-color="#FA87FF" stop-opacity="0"/>
<stop offset="0.258" stop-color="#FA87FF"/>
<stop offset="0.564" stop-color="#FA87FF" stop-opacity="0.4"/>
<stop offset="0.859" stop-color="#FA87FF"/>
<stop offset="1" stop-color="#FA87FF" stop-opacity="0"/>
</linearGradient>
<linearGradient id="paint5_linear_880_544" x1="428.914" y1="505.721" x2="401.008" y2="541.562" gradientUnits="userSpaceOnUse">
<stop stop-color="#05D8E8" stop-opacity="0"/>
<stop offset="0.361" stop-color="#05D8E8"/>
<stop offset="0.667" stop-color="#05D8E8" stop-opacity="0.4"/>
<stop offset="1" stop-color="#05D8E8" stop-opacity="0"/>
</linearGradient>
<linearGradient id="paint6_linear_880_544" x1="515.632" y1="823.008" x2="588.548" y2="809.457" gradientUnits="userSpaceOnUse">
<stop stop-color="#FA87FF" stop-opacity="0"/>
<stop offset="0.143" stop-color="#FA87FF"/>
<stop offset="0.564" stop-color="#FA87FF" stop-opacity="0.4"/>
<stop offset="0.859" stop-color="#FA87FF"/>
<stop offset="1" stop-color="#FA87FF" stop-opacity="0"/>
</linearGradient>
<linearGradient id="paint7_linear_880_544" x1="267.677" y1="573.598" x2="597.101" y2="940.276" gradientUnits="userSpaceOnUse">
<stop stop-color="#FA87FF" stop-opacity="0.3"/>
<stop offset="0.932" stop-color="#05D8E8"/>
</linearGradient>
<linearGradient id="paint8_linear_880_544" x1="402.309" y1="510.73" x2="326.076" y2="615.366" gradientUnits="userSpaceOnUse">
<stop stop-color="#FA87FF" stop-opacity="0.3"/>
<stop offset="0.898" stop-color="#05D8E8"/>
</linearGradient>
<linearGradient id="paint9_linear_880_544" x1="447.087" y1="530.782" x2="369.198" y2="642.104" gradientUnits="userSpaceOnUse">
<stop stop-color="#FA87FF" stop-opacity="0.3"/>
<stop offset="0.752" stop-color="#05D8E8"/>
</linearGradient>
<linearGradient id="paint10_linear_880_544" x1="484.399" y1="565.697" x2="413.643" y2="662.357" gradientUnits="userSpaceOnUse">
<stop stop-color="#FA87FF" stop-opacity="0.3"/>
<stop offset="0.818" stop-color="#05D8E8"/>
</linearGradient>
<linearGradient id="paint11_linear_880_544" x1="520.894" y1="597.555" x2="447.608" y2="699.323" gradientUnits="userSpaceOnUse">
<stop stop-color="#FA87FF" stop-opacity="0.3"/>
<stop offset="0.752" stop-color="#05D8E8"/>
</linearGradient>
<linearGradient id="paint12_linear_880_544" x1="551.92" y1="633.114" x2="474.344" y2="746.118" gradientUnits="userSpaceOnUse">
<stop stop-color="#FA87FF" stop-opacity="0.3"/>
<stop offset="0.752" stop-color="#05D8E8"/>
</linearGradient>
<linearGradient id="paint13_linear_880_544" x1="587.488" y1="730.87" x2="517.852" y2="827.322" gradientUnits="userSpaceOnUse">
<stop stop-color="#FA87FF" stop-opacity="0.3"/>
<stop offset="0.807" stop-color="#05D8E8"/>
</linearGradient>
<linearGradient id="paint14_linear_880_544" x1="350.21" y1="516.71" x2="253.182" y2="639.159" gradientUnits="userSpaceOnUse">
<stop offset="0.095" stop-color="#FA87FF" stop-opacity="0.3"/>
<stop offset="0.935" stop-color="#05D8E8"/>
</linearGradient>
<linearGradient id="paint15_linear_880_544" x1="252.94" y1="614.871" x2="492.875" y2="870.09" gradientUnits="userSpaceOnUse">
<stop stop-color="#FA87FF" stop-opacity="0"/>
<stop offset="0.143" stop-color="#FA87FF"/>
<stop offset="0.564" stop-color="#FA87FF" stop-opacity="0.4"/>
<stop offset="0.859" stop-color="#FA87FF"/>
<stop offset="1" stop-color="#FA87FF" stop-opacity="0"/>
</linearGradient>
<linearGradient id="paint16_linear_880_544" x1="-4.52462" y1="1476.75" x2="614.247" y2="1252.69" gradientUnits="userSpaceOnUse">
<stop stop-color="#FA87FF" stop-opacity="0"/>
<stop offset="0.143" stop-color="#FA87FF"/>
<stop offset="0.564" stop-color="#FA87FF" stop-opacity="0.4"/>
<stop offset="0.859" stop-color="#FA87FF"/>
<stop offset="1" stop-color="#FA87FF" stop-opacity="0"/>
</linearGradient>
<linearGradient id="paint17_linear_880_544" x1="1008.8" y1="434.629" x2="278.732" y2="1188.33" gradientUnits="userSpaceOnUse">
<stop offset="0.152" stop-color="#05D8E8"/>
<stop offset="0.999" stop-color="#005679"/>
</linearGradient>
<linearGradient id="paint18_linear_880_544" x1="604.509" y1="502.297" x2="856.857" y2="662.161" gradientUnits="userSpaceOnUse">
<stop stop-color="#05D8E8" stop-opacity="0"/>
<stop offset="0.143" stop-color="#05D8E8"/>
<stop offset="0.51" stop-color="#05D8E8" stop-opacity="0.4"/>
<stop offset="0.784" stop-color="#05D8E8"/>
<stop offset="0.869" stop-color="#05D8E8" stop-opacity="0"/>
</linearGradient>
<linearGradient id="paint19_linear_880_544" x1="119.987" y1="1544.68" x2="1199.89" y2="522.632" gradientUnits="userSpaceOnUse">
<stop stop-color="#80EA70" stop-opacity="0.3"/>
<stop offset="0.921" stop-color="#80EA70"/>
</linearGradient>
<linearGradient id="paint20_linear_880_544" x1="301.796" y1="1359.23" x2="1199.79" y2="575.824" gradientUnits="userSpaceOnUse">
<stop stop-color="#80EA70" stop-opacity="0"/>
<stop offset="0.143" stop-color="#80EA70"/>
<stop offset="0.564" stop-color="#80EA70" stop-opacity="0.4"/>
<stop offset="0.904" stop-color="#80EA70" stop-opacity="0.0313726"/>
<stop offset="1" stop-color="#80EA70" stop-opacity="0"/>
</linearGradient>
<linearGradient id="paint21_linear_880_544" x1="469.543" y1="394.837" x2="771.386" y2="1336.84" gradientUnits="userSpaceOnUse">
<stop stop-color="#8FFF87" stop-opacity="0.3"/>
<stop offset="0.93" stop-color="#CAFF29"/>
</linearGradient>
<linearGradient id="paint22_linear_880_544" x1="61.8826" y1="1071.26" x2="935.835" y2="272.631" gradientUnits="userSpaceOnUse">
<stop stop-color="#05D8E8" stop-opacity="0"/>
<stop offset="0.143" stop-color="#05D8E8"/>
<stop offset="0.51" stop-color="#05D8E8" stop-opacity="0.4"/>
<stop offset="0.859" stop-color="#05D8E8"/>
<stop offset="1" stop-color="#05D8E8" stop-opacity="0"/>
</linearGradient>
<linearGradient id="paint23_linear_880_544" x1="196.111" y1="1215.2" x2="1135.55" y2="369.561" gradientUnits="userSpaceOnUse">
<stop stop-color="#05D8E8" stop-opacity="0"/>
<stop offset="0.143" stop-color="#05D8E8"/>
<stop offset="0.51" stop-color="#05D8E8" stop-opacity="0.4"/>
<stop offset="0.859" stop-color="#05D8E8"/>
<stop offset="1" stop-color="#05D8E8" stop-opacity="0"/>
</linearGradient>
<linearGradient id="paint24_linear_880_544" x1="128.613" y1="837.458" x2="699.598" y2="638.189" gradientUnits="userSpaceOnUse">
<stop stop-color="#05D8E8" stop-opacity="0"/>
<stop offset="0.143" stop-color="#05D8E8"/>
<stop offset="0.51" stop-color="#05D8E8" stop-opacity="0.4"/>
<stop offset="0.859" stop-color="#05D8E8"/>
<stop offset="1" stop-color="#05D8E8" stop-opacity="0"/>
</linearGradient>
<linearGradient id="paint25_linear_880_544" x1="465.757" y1="1153.74" x2="546.6" y2="913.238" gradientUnits="userSpaceOnUse">
<stop stop-color="#FA87FF" stop-opacity="0.3"/>
<stop offset="0.849" stop-color="#05D8E8"/>
</linearGradient>
<linearGradient id="paint26_linear_880_544" x1="354.418" y1="919.362" x2="672.357" y2="458.345" gradientUnits="userSpaceOnUse">
<stop offset="0.225" stop-color="#ECD854"/>
<stop offset="0.98" stop-color="#8BFF8B"/>
</linearGradient>
<linearGradient id="paint27_linear_880_544" x1="246.913" y1="1151.33" x2="748.242" y2="611.068" gradientUnits="userSpaceOnUse">
<stop offset="0.225" stop-color="#ECD854"/>
<stop offset="0.98" stop-color="#8BFF8B"/>
</linearGradient>
<linearGradient id="paint28_linear_880_544" x1="246.913" y1="1151.33" x2="748.242" y2="611.068" gradientUnits="userSpaceOnUse">
<stop offset="0.225" stop-color="#ECD854"/>
<stop offset="0.98" stop-color="#8BFF8B"/>
</linearGradient>
<linearGradient id="paint29_linear_880_544" x1="246.913" y1="1151.33" x2="748.242" y2="611.068" gradientUnits="userSpaceOnUse">
<stop offset="0.225" stop-color="#ECD854"/>
<stop offset="0.98" stop-color="#8BFF8B"/>
</linearGradient>
<linearGradient id="paint30_linear_880_544" x1="-258.356" y1="1027.89" x2="701.189" y2="746.558" gradientUnits="userSpaceOnUse">
<stop stop-color="#05D8E8" stop-opacity="0"/>
<stop offset="0.143" stop-color="#05D8E8"/>
<stop offset="0.51" stop-color="#05D8E8" stop-opacity="0.4"/>
<stop offset="0.784" stop-color="#05D8E8"/>
<stop offset="0.869" stop-color="#05D8E8" stop-opacity="0"/>
</linearGradient>
<linearGradient id="paint31_linear_880_544" x1="-4.92168" y1="1423.46" x2="-148.423" y2="1623.81" gradientUnits="userSpaceOnUse">
<stop stop-color="#FA87FF" stop-opacity="0.3"/>
<stop offset="0.752" stop-color="#05D8E8"/>
</linearGradient>
</defs>
</svg>
