<svg width="726" height="521" viewBox="0 0 726 521" fill="none" xmlns="http://www.w3.org/2000/svg">
<mask id="mask0_614_1258" style="mask-type:alpha" maskUnits="userSpaceOnUse" x="0" y="0" width="726" height="521">
<rect width="726" height="521" fill="#D9D9D9"/>
</mask>
<g mask="url(#mask0_614_1258)">
<mask id="mask1_614_1258" style="mask-type:alpha" maskUnits="userSpaceOnUse" x="56" y="9" width="632" height="640">
<path d="M405.595 469.478L439.714 329.326L613.987 338.249L688 29.598L439.714 9.65115L379.349 29.598L70.6977 355.571L56 649L579.867 641.651L573.568 474.203L477.508 469.478H405.595Z" fill="#D9D9D9"/>
</mask>
<g mask="url(#mask1_614_1258)">
<path d="M490.429 85.3285C491.018 85.3285 503.201 84.9294 503.787 84.9431C541.693 85.8462 572.703 115.783 574.748 153.842C576.176 180.388 563.025 205.602 540.439 219.624L369.908 320.563C358.016 327.602 356.732 344.319 367.411 353.091C373.954 358.465 383.179 359.115 390.412 354.711L559.064 251.993C591.185 231.684 610.658 196.333 610.658 158.33C610.658 98.7552 563.796 49.1132 504.413 48.2994C503.907 48.292 495.776 48.2994 495.267 48.2994L490.429 85.3285Z" fill="url(#paint0_linear_614_1258)"/>
<path d="M482.97 85.226C490.111 85.4833 494.866 85.1882 495.266 85.1882V48.3009C493.234 48.2043 487.985 48.0531 482.852 47.9701L482.97 85.226Z" fill="white"/>
<path d="M504.414 59.5286C505.968 59.5286 507.228 58.269 507.228 56.7153C507.228 55.1616 505.968 53.9021 504.414 53.9021C502.861 53.9021 501.601 55.1616 501.601 56.7153C501.601 58.269 502.861 59.5286 504.414 59.5286Z" fill="#231F20"/>
<path d="M378.939 112.366C378.939 94.4481 387.833 79.6835 387.833 79.6835C394.211 67.728 404.5 60.143 413.877 55.4175C423.534 50.5513 434.281 48.1528 445.132 48.114L482.854 47.9701L485.352 85.2386C485.352 85.2386 475.518 85.2512 470.308 85.2512C479.698 91.8365 485.569 101.859 485.569 113.848C485.569 126.383 478.901 137.425 468.775 143.918C465.832 145.805 461.899 144.597 460.562 141.367C459.531 138.874 460.449 136.032 462.697 134.542C469.552 130.001 474.045 122.428 474.045 113.848C474.045 99.9486 462.263 88.6809 447.73 88.6809C433.197 88.6809 421.415 99.9486 421.415 113.848C421.415 122.689 426.184 130.461 433.394 134.948C435.939 136.532 436.699 139.897 435.172 142.476C433.594 145.14 430.138 146.03 427.491 144.424C418.482 138.959 412.052 129.955 410.345 119.453L411.568 163.068C411.629 165.243 410.797 167.947 408.965 169.162C404.348 172.221 399.62 167.217 399.62 167.217C398.1 174.325 389.158 171.329 389.158 167.319C388.827 168.62 387.169 170.725 384.619 170.787C380.666 170.883 378.85 168.397 378.623 162.896L378.939 112.366Z" fill="#FDC3A2"/>
<path d="M418.516 77.8276C418.78 77.6533 418.852 77.3005 418.678 77.0369C418.504 76.7723 418.149 76.6988 417.887 76.8752C406.279 84.5431 399.622 98.6283 399.622 115.52V167.216C400.011 167.62 400.406 167.969 400.807 168.244L400.763 115.519C400.763 99.0189 407.234 85.2803 418.516 77.8276Z" fill="#FB8596"/>
<path d="M408.675 72.8548C408.95 72.7004 409.047 72.3518 408.892 72.0777C408.738 71.8036 408.39 71.7039 408.115 71.8603C396.406 78.4456 389.158 98.2129 389.158 112.75V167.319C389.21 168.601 389.704 169.349 390.409 169.843L390.3 112.75C390.301 98.5332 397.325 79.2384 408.675 72.8548Z" fill="#FB8596"/>
<path d="M388.488 309.569C388.488 309.569 362.691 323.714 350.393 331.859C336.905 340.792 323.656 349.183 310.706 357.06C309.765 409.449 310.197 459.918 309.256 512.307L438.07 512.292L435.432 341.823C435.061 317.778 411.068 301.292 388.488 309.569Z" fill="url(#paint1_linear_614_1258)"/>
<path d="M381.305 313.543L391.311 326.745C393.371 329.21 392.948 332.898 390.382 334.831L382.216 340.985C372.178 348.55 358.103 347.57 349.209 338.687L345.443 335.046C352.058 330.386 368.171 320.772 381.305 313.543Z" fill="white"/>
<path d="M383.101 330.906L363.223 298.516C369.849 295.284 372.728 291.188 373.875 287.614C375.045 283.967 374.386 279.977 372.309 276.759L356.713 252.583L334.875 266.494C338.444 273.004 333.877 281.035 333.877 281.035L325.18 287.09L325.569 287.701C325.4 287.679 325.233 287.65 325.057 287.65C322.825 287.65 321.015 289.459 321.015 291.691C321.015 293.924 322.825 295.733 325.057 295.733C326.857 295.733 328.962 294.034 329.485 292.409L353.141 330.269C357.969 337.995 368.156 340.326 375.862 335.469L383.101 330.906Z" fill="#FDC3A2"/>
<path d="M363.224 298.517L350.485 305.995L356.869 315.893C356.869 315.893 362.818 326.584 375.465 318.459L363.224 298.517Z" fill="url(#paint2_linear_614_1258)"/>
<path d="M349.292 287.788C352.599 287.788 355.279 285.107 355.279 281.8C355.279 278.494 352.599 275.813 349.292 275.813C345.985 275.813 343.304 278.494 343.304 281.8C343.304 285.107 345.985 287.788 349.292 287.788Z" fill="url(#paint3_radial_614_1258)"/>
<path d="M361.369 234.001L358.933 229.585C356.86 230.84 354.787 232.096 352.715 233.351C349.375 229.994 346.037 226.638 342.699 223.282L322.03 250.415C315.58 257.441 313.604 268.508 318.748 277.16L324.683 287.17C324.837 287.429 325.09 287.613 325.383 287.679C325.463 287.698 325.544 287.707 325.625 287.707C325.84 287.707 326.052 287.644 326.235 287.522L331.852 283.762C337.239 280.158 339.202 273.027 336.417 267.174L335.861 266.111L356.556 252.904C362.877 248.871 364.99 240.567 361.369 234.001Z" fill="url(#paint4_linear_614_1258)"/>
<path d="M230.834 457.627L340.527 385.426C349.594 379.459 352.29 367.372 346.617 358.117C340.621 348.335 327.669 345.544 318.176 351.988L206.592 427.73C167.302 454.04 184.592 512.316 230.631 512.316L438.07 512.291V473.68L235.451 472.932C227.157 472.964 223.906 462.187 230.834 457.627Z" fill="url(#paint5_linear_614_1258)"/>
<path d="M450.366 512.588L437.471 512.276V473.678L450.366 473.779V512.588Z" fill="white"/>
<path d="M429.138 509.162C430.707 509.162 431.979 507.89 431.979 506.321C431.979 504.751 430.707 503.479 429.138 503.479C427.568 503.479 426.296 504.751 426.296 506.321C426.296 507.89 427.568 509.162 429.138 509.162Z" fill="#231F20"/>
<path d="M519.612 509.539C519.612 509.539 492.912 473.171 450.367 473.78L450.35 512.651C450.35 512.651 472.806 513.26 485.725 530.778C485.725 530.778 495.803 542.682 495.398 562.162L496.155 601.349C496.2 603.698 497.43 606.525 499.642 607.315C504.36 608.998 507.155 605.048 507.155 605.048C507.543 609.357 515.219 609.924 517.233 605.63C518.659 609.622 525.691 609.584 527.615 605.402C527.615 605.402 531.097 610.075 535.747 607.013C537.416 605.913 537.808 603.273 537.837 601.275L538.482 557.225C538.483 557.224 539.442 531.646 519.612 509.539Z" fill="#FDC3A2"/>
<path d="M503.319 519.857C503.097 519.667 502.762 519.694 502.572 519.915C502.381 520.138 502.407 520.472 502.63 520.662C511.351 528.137 516.175 548.504 516.175 559.726L516.224 607.028C516.666 606.639 517.009 606.178 517.235 605.629V559.726C517.235 548.306 512.28 527.537 503.319 519.857Z" fill="#FB8596"/>
<path d="M511.62 515.204C511.425 514.985 511.088 514.967 510.873 515.164C510.655 515.36 510.636 515.696 510.833 515.912C520.974 527.2 526.558 541.772 526.558 556.944V606.892C527.037 606.562 527.372 606.041 527.618 605.401V556.944C527.618 541.51 521.935 526.687 511.62 515.204Z" fill="#FB8596"/>
</g>
</g>
<g clip-path="url(#clip0_614_1258)">
<path d="M167.825 257.432C154.141 257.492 140.746 253.485 129.338 245.918C117.93 238.351 109.023 227.565 103.743 214.925C98.4636 202.286 97.05 188.362 99.6815 174.918C102.313 161.473 108.871 149.113 118.525 139.403C128.179 129.693 140.494 123.07 153.911 120.373C167.328 117.676 181.243 119.026 193.893 124.252C206.543 129.479 217.359 138.346 224.97 149.731C232.582 161.116 236.647 174.507 236.651 188.207C236.675 206.518 229.441 224.091 216.538 237.069C203.635 250.047 186.116 257.37 167.825 257.432ZM167.825 139.16C158.127 139.096 148.627 141.917 140.531 147.264C132.436 152.612 126.108 160.246 122.352 169.198C118.595 178.15 117.578 188.017 119.43 197.548C121.281 207.08 125.918 215.846 132.753 222.736C139.587 229.626 148.311 234.329 157.819 236.249C167.326 238.169 177.189 237.22 186.157 233.521C195.125 229.823 202.794 223.542 208.192 215.474C213.59 207.407 216.474 197.917 216.478 188.207C216.506 175.251 211.4 162.812 202.279 153.621C193.158 144.429 180.767 139.235 167.825 139.178V139.16Z" fill="#475D56"/>
<path d="M270.101 291.828C266.594 295.348 260.898 295.359 257.376 291.854L226.601 261.222C223.077 257.714 223.065 252.013 226.574 248.491L228.118 246.941C231.625 243.422 237.321 243.41 240.843 246.915L271.618 277.547C275.142 281.055 275.154 286.756 271.644 290.279L270.101 291.828Z" fill="#475D56"/>
</g>
<defs>
<linearGradient id="paint0_linear_614_1258" x1="596.68" y1="77.81" x2="355.255" y2="338.571" gradientUnits="userSpaceOnUse">
<stop offset="0.0953" stop-color="#2F8F71"/>
<stop offset="0.3353" stop-color="#2D8B6E"/>
<stop offset="0.5561" stop-color="#288065"/>
<stop offset="0.7686" stop-color="#206E55"/>
<stop offset="0.8772" stop-color="#1A614B"/>
</linearGradient>
<linearGradient id="paint1_linear_614_1258" x1="462.245" y1="339.782" x2="306.691" y2="507.795" gradientUnits="userSpaceOnUse">
<stop offset="0.0953" stop-color="#2F8F71"/>
<stop offset="0.2755" stop-color="#2D8B6E"/>
<stop offset="0.4413" stop-color="#288065"/>
<stop offset="0.6009" stop-color="#206E55"/>
<stop offset="0.6824" stop-color="#1A614B"/>
</linearGradient>
<linearGradient id="paint2_linear_614_1258" x1="362.02" y1="324.183" x2="364.544" y2="292.576" gradientUnits="userSpaceOnUse">
<stop stop-color="#FDC3A2"/>
<stop offset="0.2503" stop-color="#FDBFA1"/>
<stop offset="0.5213" stop-color="#FCB29E"/>
<stop offset="0.801" stop-color="#FC9C9A"/>
<stop offset="1" stop-color="#FB8896"/>
</linearGradient>
<radialGradient id="paint3_radial_614_1258" cx="0" cy="0" r="1" gradientUnits="userSpaceOnUse" gradientTransform="translate(349.292 281.8) scale(5.98733 5.98732)">
<stop offset="0.567" stop-color="#FCA49C"/>
<stop offset="1" stop-color="#F5A3A5" stop-opacity="0"/>
</radialGradient>
<linearGradient id="paint4_linear_614_1258" x1="315.821" y1="255.495" x2="363.136" y2="255.495" gradientUnits="userSpaceOnUse">
<stop/>
<stop offset="0.1016" stop-color="#130804"/>
<stop offset="0.3319" stop-color="#38180C"/>
<stop offset="0.5175" stop-color="#502211"/>
<stop offset="0.6339" stop-color="#582613"/>
</linearGradient>
<linearGradient id="paint5_linear_614_1258" x1="384.378" y1="428.335" x2="167.722" y2="559.538" gradientUnits="userSpaceOnUse">
<stop offset="0.0953" stop-color="#2F8F71"/>
<stop offset="0.3353" stop-color="#2D8B6E"/>
<stop offset="0.5561" stop-color="#288065"/>
<stop offset="0.7686" stop-color="#206E55"/>
<stop offset="0.8772" stop-color="#1A614B"/>
</linearGradient>
<clipPath id="clip0_614_1258">
<rect width="179" height="224" fill="white" transform="translate(99 119)"/>
</clipPath>
</defs>
</svg>
